<svg id="katman_1" data-name="katman 1" xmlns="http://www.w3.org/2000/svg" viewBox="0 0 1080 848"><defs><style>.cls-1{fill:#273066;}</style></defs><path class="cls-1" d="M1046.32,696.59q-5.6,0-10.83,10.48-19.56,38.07-58,67.06t-84.19,29q-67.42,0-122.1-62T716.53,579.94q0-58.32,19.73-109.15t55.36-78.23q35.63-27.4,78.24-27.42,48.52,0,90.1,35.28,41.2,35.49,64.27,91.16,6.29,15,11.87,15,4.19,0,5.07-2.26c.57-1.51.87-5.77.87-12.75l-7.69-121.89q-.7-12.58-7.68-12.58-6.65,0-10.13,8.38-2.79,6-22,23.05Q961,369,928.79,359.38a219.38,219.38,0,0,0-62.92-9.6q-57.69,0-111.87,30.73t-84.07,86.27Q640,522.31,640,591.46q0,62.35,24,110.49c-28.91-36.24-84.68-106.07-87.82-109.43-4.24-4.54-.91-4.84,1.52-6.86,121.57-96.54,73.31-188.22,73.31-188.22S507.89,47.25,499.81,29.08s-18.57,0-18.57,0S309.17,452.77,294.63,482.66s-50.49,24.64-58.16,25.45-7.67,6.26-7.67,6.26v4.85h166c0-10.93-5.76-10.61-5.76-10.61s-6.36-.3-16.66-.3-13.93-2.42-18.78-7c-9.69-10.3.91-39.68.91-39.68l43-107.84h71.59c29.79,0,43.52,5.75,53.11,9.08,42,21.21,61.6,52.11,61.6,126.93s-61.6,93.61-61.6,93.61H474.47c-12.12,0-18.48-3.34-18.48-3.34s.3,24.54.3,36.66c6.67-3,27.77-2.83,43.52-2.83s19.39,8.48,19.39,8.48,40,56.55,62.2,87.65,34.86,50,62.33,76.21,54.85,32.25,74.59,35.67c42,7.27,128.19,4.23,146.69,4.23q49.61,0,92.75-21.31t69.69-55.53Q1054,715.12,1054,705,1054,696.6,1046.32,696.59ZM533.54,323.52H414.19s-5.81.63-2.73-7.57l60-159.34s3.89-7.19,6.67,0C481.07,164.3,536,316,536,316S539,323.52,533.54,323.52Z"/><path class="cls-1" d="M333.38,617V582.66h6.71V611h15.58v6Z"/><path class="cls-1" d="M385.51,617l-2-6.07h-12.2L369.2,617h-7l12.49-34.34H380L392.51,617Zm-8-24.21-4.34,12.49h8.54Z"/><path class="cls-1" d="M428.37,617h-5.6l-6.31-20.84L410.14,617h-5.6l-9.16-34.34h7l5.31,21.66L414,582.66h5l6.27,21.66,5.35-21.66h7Z"/><path class="cls-1" d="M322,655.4v14.15h15.55v2.32H322v15.59h-2.61V653.09h20.86v2.31Z"/><path class="cls-1" d="M351.05,687.46V653.09h2.61v34.37Z"/><path class="cls-1" d="M388.43,687.46l-8.21-15.83h-9.47v15.83h-2.6V653.09h13.08a12.33,12.33,0,0,1,3.89.6,9.36,9.36,0,0,1,3.14,1.76,8,8,0,0,1,2.07,2.9,9.92,9.92,0,0,1,.75,4,8.94,8.94,0,0,1-2.15,6.25,9.67,9.67,0,0,1-5.77,3l8.31,15.88Zm-.51-28.19a5.68,5.68,0,0,0-1.57-2.17,6.47,6.47,0,0,0-2.42-1.29,10.83,10.83,0,0,0-3-.41H370.75v13.91H380.9a10.83,10.83,0,0,0,3-.41,6.31,6.31,0,0,0,2.42-1.28,5.76,5.76,0,0,0,1.57-2.17,8.81,8.81,0,0,0,0-6.18Z"/><path class="cls-1" d="M430,687.46V659.12l-10.43,23.51H417l-10.62-23.51v28.34h-2.61V653.09h2.61l12,26.51L430,653.09h2.61v34.37Z"/><rect class="cls-1" x="26.63" y="708.15" width="411.28" height="6.26"/></svg>